<mxfile host="app.diagrams.net" modified="2023-10-12T21:18:03.717Z" agent="Mozilla/5.0 (Windows NT 10.0; Win64; x64) AppleWebKit/537.36 (KHTML, like Gecko) Chrome/117.0.0.0 Safari/537.36" etag="MAlBxJmAVAqtVP3uCwsg" version="22.0.4" type="google">
  <diagram name="Página-1" id="kIeMW5gf2D-xGUA1YDqL">
    <mxGraphModel grid="1" page="1" gridSize="10" guides="1" tooltips="1" connect="1" arrows="1" fold="1" pageScale="1" pageWidth="1169" pageHeight="827" math="0" shadow="0">
      <root>
        <mxCell id="0" />
        <mxCell id="1" parent="0" />
        <mxCell id="PZ7aLVxDPf1ep2_HnoBR-32" value="Estudiante&amp;nbsp;" style="shape=table;startSize=30;container=1;collapsible=1;childLayout=tableLayout;fixedRows=1;rowLines=0;fontStyle=1;align=center;resizeLast=1;html=1;rounded=1;labelBackgroundColor=none;sketch=1;curveFitting=1;jiggle=2;fillColor=#B2C9AB;strokeColor=#788AA3;fontColor=#46495D;" vertex="1" parent="1">
          <mxGeometry x="30" y="40" width="180" height="140" as="geometry" />
        </mxCell>
        <mxCell id="PZ7aLVxDPf1ep2_HnoBR-33" value="" style="shape=tableRow;horizontal=0;startSize=0;swimlaneHead=0;swimlaneBody=0;fillColor=none;collapsible=0;dropTarget=0;points=[[0,0.5],[1,0.5]];portConstraint=eastwest;top=0;left=0;right=0;bottom=1;rounded=1;labelBackgroundColor=none;sketch=1;curveFitting=1;jiggle=2;strokeColor=#788AA3;fontColor=#46495D;" vertex="1" parent="PZ7aLVxDPf1ep2_HnoBR-32">
          <mxGeometry y="30" width="180" height="30" as="geometry" />
        </mxCell>
        <mxCell id="PZ7aLVxDPf1ep2_HnoBR-34" value="PK" style="shape=partialRectangle;connectable=0;fillColor=none;top=0;left=0;bottom=0;right=0;fontStyle=1;overflow=hidden;whiteSpace=wrap;html=1;rounded=1;labelBackgroundColor=none;sketch=1;curveFitting=1;jiggle=2;strokeColor=#788AA3;fontColor=#46495D;" vertex="1" parent="PZ7aLVxDPf1ep2_HnoBR-33">
          <mxGeometry width="30" height="30" as="geometry">
            <mxRectangle width="30" height="30" as="alternateBounds" />
          </mxGeometry>
        </mxCell>
        <mxCell id="PZ7aLVxDPf1ep2_HnoBR-35" value="ID" style="shape=partialRectangle;connectable=0;fillColor=none;top=0;left=0;bottom=0;right=0;align=left;spacingLeft=6;fontStyle=5;overflow=hidden;whiteSpace=wrap;html=1;rounded=1;labelBackgroundColor=none;sketch=1;curveFitting=1;jiggle=2;strokeColor=#788AA3;fontColor=#46495D;" vertex="1" parent="PZ7aLVxDPf1ep2_HnoBR-33">
          <mxGeometry x="30" width="150" height="30" as="geometry">
            <mxRectangle width="150" height="30" as="alternateBounds" />
          </mxGeometry>
        </mxCell>
        <mxCell id="PZ7aLVxDPf1ep2_HnoBR-36" value="" style="shape=tableRow;horizontal=0;startSize=0;swimlaneHead=0;swimlaneBody=0;fillColor=none;collapsible=0;dropTarget=0;points=[[0,0.5],[1,0.5]];portConstraint=eastwest;top=0;left=0;right=0;bottom=0;rounded=1;labelBackgroundColor=none;sketch=1;curveFitting=1;jiggle=2;strokeColor=#788AA3;fontColor=#46495D;" vertex="1" parent="PZ7aLVxDPf1ep2_HnoBR-32">
          <mxGeometry y="60" width="180" height="20" as="geometry" />
        </mxCell>
        <mxCell id="PZ7aLVxDPf1ep2_HnoBR-37" value="" style="shape=partialRectangle;connectable=0;fillColor=none;top=0;left=0;bottom=0;right=0;editable=1;overflow=hidden;whiteSpace=wrap;html=1;rounded=1;labelBackgroundColor=none;sketch=1;curveFitting=1;jiggle=2;strokeColor=#788AA3;fontColor=#46495D;" vertex="1" parent="PZ7aLVxDPf1ep2_HnoBR-36">
          <mxGeometry width="30" height="20" as="geometry">
            <mxRectangle width="30" height="20" as="alternateBounds" />
          </mxGeometry>
        </mxCell>
        <mxCell id="PZ7aLVxDPf1ep2_HnoBR-38" value="Nombre" style="shape=partialRectangle;connectable=0;fillColor=none;top=0;left=0;bottom=0;right=0;align=left;spacingLeft=6;overflow=hidden;whiteSpace=wrap;html=1;rounded=1;labelBackgroundColor=none;sketch=1;curveFitting=1;jiggle=2;strokeColor=#788AA3;fontColor=#46495D;" vertex="1" parent="PZ7aLVxDPf1ep2_HnoBR-36">
          <mxGeometry x="30" width="150" height="20" as="geometry">
            <mxRectangle width="150" height="20" as="alternateBounds" />
          </mxGeometry>
        </mxCell>
        <mxCell id="PZ7aLVxDPf1ep2_HnoBR-39" value="" style="shape=tableRow;horizontal=0;startSize=0;swimlaneHead=0;swimlaneBody=0;fillColor=none;collapsible=0;dropTarget=0;points=[[0,0.5],[1,0.5]];portConstraint=eastwest;top=0;left=0;right=0;bottom=0;rounded=1;labelBackgroundColor=none;sketch=1;curveFitting=1;jiggle=2;strokeColor=#788AA3;fontColor=#46495D;" vertex="1" parent="PZ7aLVxDPf1ep2_HnoBR-32">
          <mxGeometry y="80" width="180" height="30" as="geometry" />
        </mxCell>
        <mxCell id="PZ7aLVxDPf1ep2_HnoBR-40" value="" style="shape=partialRectangle;connectable=0;fillColor=none;top=0;left=0;bottom=0;right=0;editable=1;overflow=hidden;whiteSpace=wrap;html=1;rounded=1;labelBackgroundColor=none;sketch=1;curveFitting=1;jiggle=2;strokeColor=#788AA3;fontColor=#46495D;" vertex="1" parent="PZ7aLVxDPf1ep2_HnoBR-39">
          <mxGeometry width="30" height="30" as="geometry">
            <mxRectangle width="30" height="30" as="alternateBounds" />
          </mxGeometry>
        </mxCell>
        <mxCell id="PZ7aLVxDPf1ep2_HnoBR-41" value="Curso" style="shape=partialRectangle;connectable=0;fillColor=none;top=0;left=0;bottom=0;right=0;align=left;spacingLeft=6;overflow=hidden;whiteSpace=wrap;html=1;rounded=1;labelBackgroundColor=none;sketch=1;curveFitting=1;jiggle=2;strokeColor=#788AA3;fontColor=#46495D;" vertex="1" parent="PZ7aLVxDPf1ep2_HnoBR-39">
          <mxGeometry x="30" width="150" height="30" as="geometry">
            <mxRectangle width="150" height="30" as="alternateBounds" />
          </mxGeometry>
        </mxCell>
        <mxCell id="PZ7aLVxDPf1ep2_HnoBR-42" value="" style="shape=tableRow;horizontal=0;startSize=0;swimlaneHead=0;swimlaneBody=0;fillColor=none;collapsible=0;dropTarget=0;points=[[0,0.5],[1,0.5]];portConstraint=eastwest;top=0;left=0;right=0;bottom=0;rounded=1;labelBackgroundColor=none;sketch=1;curveFitting=1;jiggle=2;strokeColor=#788AA3;fontColor=#46495D;" vertex="1" parent="PZ7aLVxDPf1ep2_HnoBR-32">
          <mxGeometry y="110" width="180" height="30" as="geometry" />
        </mxCell>
        <mxCell id="PZ7aLVxDPf1ep2_HnoBR-43" value="" style="shape=partialRectangle;connectable=0;fillColor=none;top=0;left=0;bottom=0;right=0;editable=1;overflow=hidden;whiteSpace=wrap;html=1;rounded=1;labelBackgroundColor=none;sketch=1;curveFitting=1;jiggle=2;strokeColor=#788AA3;fontColor=#46495D;" vertex="1" parent="PZ7aLVxDPf1ep2_HnoBR-42">
          <mxGeometry width="30" height="30" as="geometry">
            <mxRectangle width="30" height="30" as="alternateBounds" />
          </mxGeometry>
        </mxCell>
        <mxCell id="PZ7aLVxDPf1ep2_HnoBR-44" value="" style="shape=partialRectangle;connectable=0;fillColor=none;top=0;left=0;bottom=0;right=0;align=left;spacingLeft=6;overflow=hidden;whiteSpace=wrap;html=1;rounded=1;labelBackgroundColor=none;sketch=1;curveFitting=1;jiggle=2;strokeColor=#788AA3;fontColor=#46495D;" vertex="1" parent="PZ7aLVxDPf1ep2_HnoBR-42">
          <mxGeometry x="30" width="150" height="30" as="geometry">
            <mxRectangle width="150" height="30" as="alternateBounds" />
          </mxGeometry>
        </mxCell>
        <mxCell id="PZ7aLVxDPf1ep2_HnoBR-84" style="edgeStyle=orthogonalEdgeStyle;rounded=1;orthogonalLoop=1;jettySize=auto;html=1;exitX=0.5;exitY=1;exitDx=0;exitDy=0;entryX=0.483;entryY=1.1;entryDx=0;entryDy=0;entryPerimeter=0;labelBackgroundColor=none;fontColor=default;sketch=1;curveFitting=1;jiggle=2;strokeColor=#788AA3;" edge="1" parent="PZ7aLVxDPf1ep2_HnoBR-32" source="PZ7aLVxDPf1ep2_HnoBR-32" target="PZ7aLVxDPf1ep2_HnoBR-42">
          <mxGeometry relative="1" as="geometry">
            <Array as="points">
              <mxPoint x="90" y="143" />
            </Array>
          </mxGeometry>
        </mxCell>
        <mxCell id="PZ7aLVxDPf1ep2_HnoBR-45" value="Libro" style="shape=table;startSize=30;container=1;collapsible=1;childLayout=tableLayout;fixedRows=1;rowLines=0;fontStyle=1;align=center;resizeLast=1;html=1;rounded=1;labelBackgroundColor=none;sketch=1;curveFitting=1;jiggle=2;fillColor=#B2C9AB;strokeColor=#788AA3;fontColor=#46495D;" vertex="1" parent="1">
          <mxGeometry x="500" y="255" width="180" height="160" as="geometry" />
        </mxCell>
        <mxCell id="PZ7aLVxDPf1ep2_HnoBR-46" value="" style="shape=tableRow;horizontal=0;startSize=0;swimlaneHead=0;swimlaneBody=0;fillColor=none;collapsible=0;dropTarget=0;points=[[0,0.5],[1,0.5]];portConstraint=eastwest;top=0;left=0;right=0;bottom=1;rounded=1;labelBackgroundColor=none;sketch=1;curveFitting=1;jiggle=2;strokeColor=#788AA3;fontColor=#46495D;" vertex="1" parent="PZ7aLVxDPf1ep2_HnoBR-45">
          <mxGeometry y="30" width="180" height="60" as="geometry" />
        </mxCell>
        <mxCell id="PZ7aLVxDPf1ep2_HnoBR-47" value="PK" style="shape=partialRectangle;connectable=0;fillColor=none;top=0;left=0;bottom=0;right=0;fontStyle=1;overflow=hidden;whiteSpace=wrap;html=1;rounded=1;labelBackgroundColor=none;sketch=1;curveFitting=1;jiggle=2;strokeColor=#788AA3;fontColor=#46495D;" vertex="1" parent="PZ7aLVxDPf1ep2_HnoBR-46">
          <mxGeometry width="20" height="60" as="geometry">
            <mxRectangle width="20" height="60" as="alternateBounds" />
          </mxGeometry>
        </mxCell>
        <mxCell id="PZ7aLVxDPf1ep2_HnoBR-48" value="Título" style="shape=partialRectangle;connectable=0;fillColor=none;top=0;left=0;bottom=0;right=0;align=left;spacingLeft=6;fontStyle=5;overflow=hidden;whiteSpace=wrap;html=1;rounded=1;labelBackgroundColor=none;sketch=1;curveFitting=1;jiggle=2;strokeColor=#788AA3;fontColor=#46495D;" vertex="1" parent="PZ7aLVxDPf1ep2_HnoBR-46">
          <mxGeometry x="20" width="160" height="60" as="geometry">
            <mxRectangle width="160" height="60" as="alternateBounds" />
          </mxGeometry>
        </mxCell>
        <mxCell id="PZ7aLVxDPf1ep2_HnoBR-49" value="" style="shape=tableRow;horizontal=0;startSize=0;swimlaneHead=0;swimlaneBody=0;fillColor=none;collapsible=0;dropTarget=0;points=[[0,0.5],[1,0.5]];portConstraint=eastwest;top=0;left=0;right=0;bottom=0;rounded=1;labelBackgroundColor=none;sketch=1;curveFitting=1;jiggle=2;strokeColor=#788AA3;fontColor=#46495D;" vertex="1" parent="PZ7aLVxDPf1ep2_HnoBR-45">
          <mxGeometry y="90" width="180" height="20" as="geometry" />
        </mxCell>
        <mxCell id="PZ7aLVxDPf1ep2_HnoBR-50" value="" style="shape=partialRectangle;connectable=0;fillColor=none;top=0;left=0;bottom=0;right=0;editable=1;overflow=hidden;whiteSpace=wrap;html=1;rounded=1;labelBackgroundColor=none;sketch=1;curveFitting=1;jiggle=2;strokeColor=#788AA3;fontColor=#46495D;" vertex="1" parent="PZ7aLVxDPf1ep2_HnoBR-49">
          <mxGeometry width="20" height="20" as="geometry">
            <mxRectangle width="20" height="20" as="alternateBounds" />
          </mxGeometry>
        </mxCell>
        <mxCell id="PZ7aLVxDPf1ep2_HnoBR-51" value="" style="shape=partialRectangle;connectable=0;fillColor=none;top=0;left=0;bottom=0;right=0;align=left;spacingLeft=6;overflow=hidden;whiteSpace=wrap;html=1;rounded=1;labelBackgroundColor=none;sketch=1;curveFitting=1;jiggle=2;strokeColor=#788AA3;fontColor=#46495D;" vertex="1" parent="PZ7aLVxDPf1ep2_HnoBR-49">
          <mxGeometry x="20" width="160" height="20" as="geometry">
            <mxRectangle width="160" height="20" as="alternateBounds" />
          </mxGeometry>
        </mxCell>
        <mxCell id="PZ7aLVxDPf1ep2_HnoBR-52" value="" style="shape=tableRow;horizontal=0;startSize=0;swimlaneHead=0;swimlaneBody=0;fillColor=none;collapsible=0;dropTarget=0;points=[[0,0.5],[1,0.5]];portConstraint=eastwest;top=0;left=0;right=0;bottom=0;rounded=1;labelBackgroundColor=none;sketch=1;curveFitting=1;jiggle=2;strokeColor=#788AA3;fontColor=#46495D;" vertex="1" parent="PZ7aLVxDPf1ep2_HnoBR-45">
          <mxGeometry y="110" width="180" height="20" as="geometry" />
        </mxCell>
        <mxCell id="PZ7aLVxDPf1ep2_HnoBR-53" value="" style="shape=partialRectangle;connectable=0;fillColor=none;top=0;left=0;bottom=0;right=0;editable=1;overflow=hidden;whiteSpace=wrap;html=1;rounded=1;labelBackgroundColor=none;sketch=1;curveFitting=1;jiggle=2;strokeColor=#788AA3;fontColor=#46495D;" vertex="1" parent="PZ7aLVxDPf1ep2_HnoBR-52">
          <mxGeometry width="20" height="20" as="geometry">
            <mxRectangle width="20" height="20" as="alternateBounds" />
          </mxGeometry>
        </mxCell>
        <mxCell id="PZ7aLVxDPf1ep2_HnoBR-54" value="Autor" style="shape=partialRectangle;connectable=0;fillColor=none;top=0;left=0;bottom=0;right=0;align=left;spacingLeft=6;overflow=hidden;whiteSpace=wrap;html=1;rounded=1;labelBackgroundColor=none;sketch=1;curveFitting=1;jiggle=2;strokeColor=#788AA3;fontColor=#46495D;" vertex="1" parent="PZ7aLVxDPf1ep2_HnoBR-52">
          <mxGeometry x="20" width="160" height="20" as="geometry">
            <mxRectangle width="160" height="20" as="alternateBounds" />
          </mxGeometry>
        </mxCell>
        <mxCell id="PZ7aLVxDPf1ep2_HnoBR-55" value="" style="shape=tableRow;horizontal=0;startSize=0;swimlaneHead=0;swimlaneBody=0;fillColor=none;collapsible=0;dropTarget=0;points=[[0,0.5],[1,0.5]];portConstraint=eastwest;top=0;left=0;right=0;bottom=0;rounded=1;labelBackgroundColor=none;sketch=1;curveFitting=1;jiggle=2;strokeColor=#788AA3;fontColor=#46495D;" vertex="1" parent="PZ7aLVxDPf1ep2_HnoBR-45">
          <mxGeometry y="130" width="180" height="30" as="geometry" />
        </mxCell>
        <mxCell id="PZ7aLVxDPf1ep2_HnoBR-56" value="" style="shape=partialRectangle;connectable=0;fillColor=none;top=0;left=0;bottom=0;right=0;editable=1;overflow=hidden;whiteSpace=wrap;html=1;rounded=1;labelBackgroundColor=none;sketch=1;curveFitting=1;jiggle=2;strokeColor=#788AA3;fontColor=#46495D;" vertex="1" parent="PZ7aLVxDPf1ep2_HnoBR-55">
          <mxGeometry width="20" height="30" as="geometry">
            <mxRectangle width="20" height="30" as="alternateBounds" />
          </mxGeometry>
        </mxCell>
        <mxCell id="PZ7aLVxDPf1ep2_HnoBR-57" value="" style="shape=partialRectangle;connectable=0;fillColor=none;top=0;left=0;bottom=0;right=0;align=left;spacingLeft=6;overflow=hidden;whiteSpace=wrap;html=1;rounded=1;labelBackgroundColor=none;sketch=1;curveFitting=1;jiggle=2;strokeColor=#788AA3;fontColor=#46495D;" vertex="1" parent="PZ7aLVxDPf1ep2_HnoBR-55">
          <mxGeometry x="20" width="160" height="30" as="geometry">
            <mxRectangle width="160" height="30" as="alternateBounds" />
          </mxGeometry>
        </mxCell>
        <mxCell id="PZ7aLVxDPf1ep2_HnoBR-90" value="" style="edgeStyle=entityRelationEdgeStyle;fontSize=12;html=1;endArrow=ERmandOne;startArrow=ERmandOne;rounded=1;entryX=0;entryY=0.5;entryDx=0;entryDy=0;exitX=1;exitY=0.5;exitDx=0;exitDy=0;labelBackgroundColor=none;fontColor=default;sketch=1;curveFitting=1;jiggle=2;strokeColor=#788AA3;" edge="1" parent="1" source="PZ7aLVxDPf1ep2_HnoBR-75" target="PZ7aLVxDPf1ep2_HnoBR-46">
          <mxGeometry width="100" height="100" relative="1" as="geometry">
            <mxPoint x="330" y="392.02" as="sourcePoint" />
            <mxPoint x="556.94" y="330" as="targetPoint" />
          </mxGeometry>
        </mxCell>
        <mxCell id="PZ7aLVxDPf1ep2_HnoBR-91" value="" style="edgeStyle=entityRelationEdgeStyle;fontSize=12;html=1;endArrow=ERmandOne;startArrow=ERmandOne;rounded=1;exitX=1;exitY=0.5;exitDx=0;exitDy=0;labelBackgroundColor=none;fontColor=default;sketch=1;curveFitting=1;jiggle=2;strokeColor=#788AA3;" edge="1" parent="1" source="PZ7aLVxDPf1ep2_HnoBR-33">
          <mxGeometry width="100" height="100" relative="1" as="geometry">
            <mxPoint x="116" y="330" as="sourcePoint" />
            <mxPoint x="150" y="400" as="targetPoint" />
            <Array as="points">
              <mxPoint x="86" y="670" />
              <mxPoint x="200" y="230" />
              <mxPoint x="200" y="230" />
            </Array>
          </mxGeometry>
        </mxCell>
        <mxCell id="PZ7aLVxDPf1ep2_HnoBR-71" value="Préstamo" style="shape=table;startSize=30;container=1;collapsible=1;childLayout=tableLayout;fixedRows=1;rowLines=0;fontStyle=1;align=center;resizeLast=1;html=1;rounded=1;labelBackgroundColor=none;sketch=1;curveFitting=1;jiggle=2;fillColor=#B2C9AB;strokeColor=#788AA3;fontColor=#46495D;" vertex="1" parent="1">
          <mxGeometry x="150" y="260" width="180" height="150" as="geometry" />
        </mxCell>
        <mxCell id="PZ7aLVxDPf1ep2_HnoBR-72" value="" style="shape=tableRow;horizontal=0;startSize=0;swimlaneHead=0;swimlaneBody=0;fillColor=none;collapsible=0;dropTarget=0;points=[[0,0.5],[1,0.5]];portConstraint=eastwest;top=0;left=0;right=0;bottom=1;rounded=1;labelBackgroundColor=none;sketch=1;curveFitting=1;jiggle=2;strokeColor=#788AA3;fontColor=#46495D;" vertex="1" parent="PZ7aLVxDPf1ep2_HnoBR-71">
          <mxGeometry y="30" width="180" height="30" as="geometry" />
        </mxCell>
        <mxCell id="PZ7aLVxDPf1ep2_HnoBR-73" value="PK" style="shape=partialRectangle;connectable=0;fillColor=none;top=0;left=0;bottom=0;right=0;fontStyle=1;overflow=hidden;whiteSpace=wrap;html=1;rounded=1;labelBackgroundColor=none;sketch=1;curveFitting=1;jiggle=2;strokeColor=#788AA3;fontColor=#46495D;" vertex="1" parent="PZ7aLVxDPf1ep2_HnoBR-72">
          <mxGeometry width="30" height="30" as="geometry">
            <mxRectangle width="30" height="30" as="alternateBounds" />
          </mxGeometry>
        </mxCell>
        <mxCell id="PZ7aLVxDPf1ep2_HnoBR-74" value="ID" style="shape=partialRectangle;connectable=0;fillColor=none;top=0;left=0;bottom=0;right=0;align=left;spacingLeft=6;fontStyle=5;overflow=hidden;whiteSpace=wrap;html=1;rounded=1;labelBackgroundColor=none;sketch=1;curveFitting=1;jiggle=2;strokeColor=#788AA3;fontColor=#46495D;" vertex="1" parent="PZ7aLVxDPf1ep2_HnoBR-72">
          <mxGeometry x="30" width="150" height="30" as="geometry">
            <mxRectangle width="150" height="30" as="alternateBounds" />
          </mxGeometry>
        </mxCell>
        <mxCell id="PZ7aLVxDPf1ep2_HnoBR-75" value="" style="shape=tableRow;horizontal=0;startSize=0;swimlaneHead=0;swimlaneBody=0;fillColor=none;collapsible=0;dropTarget=0;points=[[0,0.5],[1,0.5]];portConstraint=eastwest;top=0;left=0;right=0;bottom=0;rounded=1;labelBackgroundColor=none;sketch=1;curveFitting=1;jiggle=2;strokeColor=#788AA3;fontColor=#46495D;" vertex="1" parent="PZ7aLVxDPf1ep2_HnoBR-71">
          <mxGeometry y="60" width="180" height="30" as="geometry" />
        </mxCell>
        <mxCell id="PZ7aLVxDPf1ep2_HnoBR-76" value="FK" style="shape=partialRectangle;connectable=0;fillColor=none;top=0;left=0;bottom=0;right=0;editable=1;overflow=hidden;whiteSpace=wrap;html=1;rounded=1;labelBackgroundColor=none;sketch=1;curveFitting=1;jiggle=2;strokeColor=#788AA3;fontColor=#46495D;" vertex="1" parent="PZ7aLVxDPf1ep2_HnoBR-75">
          <mxGeometry width="30" height="30" as="geometry">
            <mxRectangle width="30" height="30" as="alternateBounds" />
          </mxGeometry>
        </mxCell>
        <mxCell id="PZ7aLVxDPf1ep2_HnoBR-77" value="Libro" style="shape=partialRectangle;connectable=0;fillColor=none;top=0;left=0;bottom=0;right=0;align=left;spacingLeft=6;overflow=hidden;whiteSpace=wrap;html=1;rounded=1;labelBackgroundColor=none;sketch=1;curveFitting=1;jiggle=2;strokeColor=#788AA3;fontColor=#46495D;" vertex="1" parent="PZ7aLVxDPf1ep2_HnoBR-75">
          <mxGeometry x="30" width="150" height="30" as="geometry">
            <mxRectangle width="150" height="30" as="alternateBounds" />
          </mxGeometry>
        </mxCell>
        <mxCell id="PZ7aLVxDPf1ep2_HnoBR-78" value="" style="shape=tableRow;horizontal=0;startSize=0;swimlaneHead=0;swimlaneBody=0;fillColor=none;collapsible=0;dropTarget=0;points=[[0,0.5],[1,0.5]];portConstraint=eastwest;top=0;left=0;right=0;bottom=0;rounded=1;labelBackgroundColor=none;sketch=1;curveFitting=1;jiggle=2;strokeColor=#788AA3;fontColor=#46495D;" vertex="1" parent="PZ7aLVxDPf1ep2_HnoBR-71">
          <mxGeometry y="90" width="180" height="30" as="geometry" />
        </mxCell>
        <mxCell id="PZ7aLVxDPf1ep2_HnoBR-79" value="" style="shape=partialRectangle;connectable=0;fillColor=none;top=0;left=0;bottom=0;right=0;editable=1;overflow=hidden;whiteSpace=wrap;html=1;rounded=1;labelBackgroundColor=none;sketch=1;curveFitting=1;jiggle=2;strokeColor=#788AA3;fontColor=#46495D;" vertex="1" parent="PZ7aLVxDPf1ep2_HnoBR-78">
          <mxGeometry width="30" height="30" as="geometry">
            <mxRectangle width="30" height="30" as="alternateBounds" />
          </mxGeometry>
        </mxCell>
        <mxCell id="PZ7aLVxDPf1ep2_HnoBR-80" value="&amp;nbsp;Fecha devolución" style="shape=partialRectangle;connectable=0;fillColor=none;top=0;left=0;bottom=0;right=0;align=left;spacingLeft=6;overflow=hidden;whiteSpace=wrap;html=1;rounded=1;labelBackgroundColor=none;sketch=1;curveFitting=1;jiggle=2;strokeColor=#788AA3;fontColor=#46495D;" vertex="1" parent="PZ7aLVxDPf1ep2_HnoBR-78">
          <mxGeometry x="30" width="150" height="30" as="geometry">
            <mxRectangle width="150" height="30" as="alternateBounds" />
          </mxGeometry>
        </mxCell>
        <mxCell id="PZ7aLVxDPf1ep2_HnoBR-81" value="" style="shape=tableRow;horizontal=0;startSize=0;swimlaneHead=0;swimlaneBody=0;fillColor=none;collapsible=0;dropTarget=0;points=[[0,0.5],[1,0.5]];portConstraint=eastwest;top=0;left=0;right=0;bottom=0;rounded=1;labelBackgroundColor=none;sketch=1;curveFitting=1;jiggle=2;strokeColor=#788AA3;fontColor=#46495D;" vertex="1" parent="PZ7aLVxDPf1ep2_HnoBR-71">
          <mxGeometry y="120" width="180" height="30" as="geometry" />
        </mxCell>
        <mxCell id="PZ7aLVxDPf1ep2_HnoBR-82" value="FK" style="shape=partialRectangle;connectable=0;fillColor=none;top=0;left=0;bottom=0;right=0;editable=1;overflow=hidden;whiteSpace=wrap;html=1;rounded=1;labelBackgroundColor=none;sketch=1;curveFitting=1;jiggle=2;strokeColor=#788AA3;fontColor=#46495D;" vertex="1" parent="PZ7aLVxDPf1ep2_HnoBR-81">
          <mxGeometry width="30" height="30" as="geometry">
            <mxRectangle width="30" height="30" as="alternateBounds" />
          </mxGeometry>
        </mxCell>
        <mxCell id="PZ7aLVxDPf1ep2_HnoBR-83" value="Estudiante" style="shape=partialRectangle;connectable=0;fillColor=none;top=0;left=0;bottom=0;right=0;align=left;spacingLeft=6;overflow=hidden;whiteSpace=wrap;html=1;rounded=1;labelBackgroundColor=none;sketch=1;curveFitting=1;jiggle=2;strokeColor=#788AA3;fontColor=#46495D;" vertex="1" parent="PZ7aLVxDPf1ep2_HnoBR-81">
          <mxGeometry x="30" width="150" height="30" as="geometry">
            <mxRectangle width="150" height="30" as="alternateBounds" />
          </mxGeometry>
        </mxCell>
      </root>
    </mxGraphModel>
  </diagram>
</mxfile>
